<svg width="19" height="20" viewBox="0 0 19 20" fill="none" xmlns="http://www.w3.org/2000/svg">
<path d="M15.0204 3.16402C14.2691 2.41705 13.2539 1.99609 12.1945 1.99235C11.1351 1.98861 10.1169 2.40237 9.36036 3.14402L2.70036 9.68802C2.51152 9.87395 2.25671 9.97749 1.99171 9.97599C1.7267 9.97449 1.47309 9.86807 1.28636 9.68002C1.19407 9.58699 1.12109 9.47662 1.07161 9.35527C1.02213 9.23392 0.997142 9.10399 0.998072 8.97294C0.999001 8.8419 1.02583 8.71233 1.07703 8.5917C1.12822 8.47106 1.20276 8.36174 1.29636 8.27002L7.95436 1.72802C9.08713 0.616119 10.6124 -0.00465518 12.1997 0.000211506C13.787 0.00507819 15.3084 0.635193 16.4344 1.75402C16.9929 2.30922 17.4362 2.96939 17.7387 3.69654C18.0412 4.42369 18.1969 5.20347 18.1969 5.99102C18.1969 6.77858 18.0412 7.55836 17.7387 8.28551C17.4362 9.01266 16.9929 9.67282 16.4344 10.228L7.77036 18.856C7.03366 19.5883 6.03711 19.9994 4.99836 19.9994C3.95961 19.9994 2.96306 19.5883 2.22636 18.856C1.86251 18.4942 1.57377 18.0639 1.37674 17.5901C1.17972 17.1163 1.07829 16.6082 1.07829 16.095C1.07829 15.5819 1.17972 15.0738 1.37674 14.5999C1.57377 14.1261 1.86251 13.6959 2.22636 13.334L10.3064 5.28802C10.4941 5.10165 10.7478 4.99706 11.0124 4.99706C11.2769 4.99706 11.5307 5.10165 11.7184 5.28802C11.811 5.38037 11.8845 5.49009 11.9347 5.61089C11.9848 5.7317 12.0106 5.86122 12.0106 5.99202C12.0106 6.12283 11.9848 6.25235 11.9347 6.37315C11.8845 6.49396 11.811 6.60368 11.7184 6.69602L3.64036 14.742C3.46203 14.9193 3.32052 15.1302 3.22395 15.3624C3.12738 15.5945 3.07767 15.8435 3.07767 16.095C3.07767 16.3465 3.12738 16.5955 3.22395 16.8277C3.32052 17.0599 3.46203 17.2707 3.64036 17.448C4.0014 17.8081 4.49048 18.0103 5.00036 18.0103C5.51024 18.0103 5.99932 17.8081 6.36036 17.448L15.0204 8.82002C15.3931 8.44941 15.6889 8.00877 15.8907 7.52344C16.0926 7.0381 16.1965 6.51766 16.1965 5.99202C16.1965 5.46639 16.0926 4.94595 15.8907 4.46061C15.6889 3.97528 15.3931 3.53464 15.0204 3.16402Z" fill="#EFF2FC"/>
</svg>
