<svg width="24" height="24" viewBox="0 0 24 24" fill="none" xmlns="http://www.w3.org/2000/svg">
<path d="M20.4 13.2V16.8L16.8 13.2H9.6C8.96348 13.2 8.35303 12.9471 7.90294 12.4971C7.45286 12.047 7.2 11.4365 7.2 10.8V2.4C7.2 1.08 8.28 0 9.6 0H21.6C22.2365 0 22.847 0.252856 23.2971 0.702944C23.7471 1.15303 24 1.76348 24 2.4V10.8C24 11.4365 23.7471 12.047 23.2971 12.4971C22.847 12.9471 22.2365 13.2 21.6 13.2H20.4ZM16.8 15.6V18C16.8 18.6365 16.5471 19.247 16.0971 19.6971C15.647 20.1471 15.0365 20.4 14.4 20.4H7.2L3.6 24V20.4H2.4C1.76348 20.4 1.15303 20.1471 0.702944 19.6971C0.252856 19.247 0 18.6365 0 18V9.6C0 8.28 1.08 7.2 2.4 7.2H4.8V10.8C4.8 12.073 5.30571 13.2939 6.20589 14.1941C7.10606 15.0943 8.32696 15.6 9.6 15.6H16.8Z" fill="white"/>
</svg>
