<svg width="22" height="16" viewBox="0 0 22 16" fill="none" xmlns="http://www.w3.org/2000/svg">
<path d="M0.810273 6.22668C1.09156 5.94547 1.47303 5.7875 1.87077 5.7875C2.26852 5.7875 2.64998 5.94547 2.93127 6.22668L8.23527 11.5307L18.8403 0.924179C18.9795 0.784814 19.1449 0.674244 19.3269 0.598782C19.5089 0.52332 19.704 0.484445 19.901 0.484375C20.098 0.484305 20.2931 0.523043 20.4752 0.598376C20.6572 0.673709 20.8227 0.784162 20.962 0.923429C21.1014 1.0627 21.212 1.22805 21.2874 1.41005C21.3629 1.59205 21.4018 1.78713 21.4018 1.98415C21.4019 2.18117 21.3632 2.37628 21.2878 2.55833C21.2125 2.74038 21.102 2.90581 20.9628 3.04518L8.23527 15.7727L0.810273 8.34768C0.529067 8.06639 0.371094 7.68493 0.371094 7.28718C0.371094 6.88943 0.529067 6.50797 0.810273 6.22668Z" fill="white"/>
</svg>
