<svg width="16" height="12" viewBox="0 0 16 12" fill="none" xmlns="http://www.w3.org/2000/svg">
<path d="M6.7 11.275C6.9 11.075 6.996 10.8333 6.988 10.55C6.97933 10.2667 6.875 10.025 6.675 9.82499L3.85 6.99999H15C15.2833 6.99999 15.521 6.90399 15.713 6.71199C15.9043 6.52065 16 6.28332 16 5.99999C16 5.71665 15.9043 5.47899 15.713 5.28699C15.521 5.09565 15.2833 4.99999 15 4.99999H3.85L6.7 2.14999C6.9 1.94999 7 1.71232 7 1.43699C7 1.16232 6.9 0.924987 6.7 0.724988C6.5 0.524988 6.26233 0.424988 5.987 0.424988C5.71233 0.424988 5.475 0.524988 5.275 0.724988L0.700001 5.29999C0.6 5.39999 0.528999 5.50832 0.487 5.62499C0.445666 5.74165 0.424999 5.86665 0.424999 5.99999C0.424999 6.13332 0.445666 6.25832 0.487 6.37499C0.528999 6.49165 0.6 6.59999 0.700001 6.69999L5.3 11.3C5.48333 11.4833 5.71233 11.575 5.987 11.575C6.26233 11.575 6.5 11.475 6.7 11.275Z" fill="#EFF2FC" fill-opacity="0.8"/>
</svg>
