<svg width="12" height="20" viewBox="0 0 12 20" fill="none" xmlns="http://www.w3.org/2000/svg">
<path d="M11.0375 19.1125C11.2875 18.8625 11.4125 18.5665 11.4125 18.2245C11.4125 17.8832 11.2875 17.5875 11.0375 17.3375L3.71248 10.0125L11.0625 2.6625C11.2958 2.42916 11.4125 2.1375 11.4125 1.7875C11.4125 1.4375 11.2875 1.1375 11.0375 0.887497C10.7875 0.637497 10.4915 0.512497 10.1495 0.512497C9.80814 0.512497 9.51248 0.637497 9.26248 0.887497L0.862474 9.3125C0.762474 9.4125 0.691475 9.52083 0.649475 9.6375C0.608142 9.75416 0.587475 9.87916 0.587475 10.0125C0.587475 10.1458 0.608142 10.2708 0.649475 10.3875C0.691475 10.5042 0.762474 10.6125 0.862474 10.7125L9.28748 19.1375C9.52081 19.3708 9.80814 19.4875 10.1495 19.4875C10.4915 19.4875 10.7875 19.3625 11.0375 19.1125Z" fill="#EFF2FC" fill-opacity="0.2"/>
</svg>
