<svg width="24" height="24" viewBox="0 0 24 24" fill="none" xmlns="http://www.w3.org/2000/svg">
<path d="M12 17C10.6167 17 9.43767 16.5123 8.463 15.537C7.48767 14.5623 7 13.3833 7 12C7 10.6167 7.48767 9.43733 8.463 8.462C9.43767 7.48733 10.6167 7 12 7C13.3833 7 14.5627 7.48733 15.538 8.462C16.5127 9.43733 17 10.6167 17 12C17 13.3833 16.5127 14.5623 15.538 15.537C14.5627 16.5123 13.3833 17 12 17ZM1 13V11H5V13H1ZM19 13V11H23V13H19ZM11 5V1H13V5H11ZM11 23V19H13V23H11ZM6.35 7.75L3.875 5.275L5.275 3.875L7.75 6.35L6.35 7.75ZM18.725 20.125L16.25 17.65L17.65 16.25L20.125 18.725L18.725 20.125ZM17.65 7.75L16.25 6.35L18.725 3.875L20.125 5.275L17.65 7.75ZM5.275 20.125L3.875 18.725L6.35 16.25L7.75 17.65L5.275 20.125Z" fill="#EFF2FC"/>
</svg>
