<svg width="37" height="36" viewBox="0 0 37 36" fill="none" xmlns="http://www.w3.org/2000/svg">
<g clip-path="url(#clip0_0_499)">
<path d="M36.4828 18.3368C36.4828 16.8619 36.3603 15.7856 36.0953 14.6694H18.8586V21.3264H28.9761C28.7722 22.9808 27.6707 25.4722 25.2228 27.1463L25.1885 27.3692L30.6385 31.4945L31.016 31.5313C34.4837 28.4021 36.4828 23.7979 36.4828 18.3368Z" fill="#4285F4"/>
<path d="M18.8586 35.8763C23.8153 35.8763 27.9766 34.2818 31.016 31.5313L25.2228 27.1463C23.6726 28.2027 21.5919 28.9402 18.8586 28.9402C14.0038 28.9402 9.88333 25.811 8.4145 21.486L8.19921 21.5038L2.5323 25.7891L2.45819 25.9904C5.47713 31.8501 11.6783 35.8763 18.8586 35.8763Z" fill="#34A853"/>
<path d="M8.41451 21.486C8.02695 20.3698 7.80266 19.1739 7.80266 17.9382C7.80266 16.7024 8.02695 15.5065 8.39412 14.3904L8.38386 14.1527L2.64594 9.7986L2.4582 9.88585C1.21395 12.3175 0.5 15.0481 0.5 17.9382C0.5 20.8282 1.21395 23.5587 2.4582 25.9904L8.41451 21.486Z" fill="#FBBC05"/>
<path d="M18.8586 6.93605C22.3059 6.93605 24.6312 8.39102 25.9572 9.60692L31.1384 4.66392C27.9563 1.77389 23.8153 0 18.8586 0C11.6783 0 5.47713 4.02609 2.45819 9.88585L8.39411 14.3904C9.88333 10.0653 14.0038 6.93605 18.8586 6.93605Z" fill="#EB4335"/>
</g>
<defs>
<clipPath id="clip0_0_499">
<rect width="36" height="36" fill="white" transform="translate(0.5)"/>
</clipPath>
</defs>
</svg>
