<svg width="13" height="20" viewBox="0 0 13 20" fill="none" xmlns="http://www.w3.org/2000/svg">
<path d="M3.00195 1.24928e-05C1.98427 -0.00160341 0.972402 0.153549 0.00195312 0.460013C2.03237 1.0981 3.80624 2.36734 5.06555 4.08312C6.32485 5.79889 7.00389 7.8717 7.00389 10C7.00389 12.1283 6.32485 14.2011 5.06555 15.9169C3.80624 17.6327 2.03237 18.9019 0.00195312 19.54C1.37701 19.9721 2.82924 20.1019 4.25913 19.9204C5.68902 19.7389 7.06278 19.2505 8.28629 18.4886C9.5098 17.7266 10.5541 16.7092 11.3477 15.506C12.1413 14.3028 12.6655 12.9422 12.8842 11.5175C13.1029 10.0929 13.0111 8.63776 12.615 7.25189C12.2189 5.86602 11.5279 4.58216 10.5893 3.48827C9.65072 2.39438 8.48676 1.51631 7.17717 0.914234C5.86758 0.312154 4.44332 0.000291332 3.00195 1.24928e-05Z" fill="white"/>
</svg>
