<svg width="18" height="18" viewBox="0 0 18 18" fill="none" xmlns="http://www.w3.org/2000/svg">
<path d="M14.38 7.79C12.94 10.62 10.62 12.94 7.79 14.38L5.59 12.18C5.31 11.9 4.92 11.82 4.57 11.93C3.45 12.3 2.25 12.5 1 12.5C0.734783 12.5 0.480429 12.6054 0.292892 12.7929C0.105356 12.9804 0 13.2348 0 13.5V17C0 17.2652 0.105356 17.5196 0.292892 17.7071C0.480429 17.8946 0.734783 18 1 18C5.50868 18 9.8327 16.2089 13.0208 13.0208C16.2089 9.8327 18 5.50868 18 1C18 0.734784 17.8946 0.48043 17.7071 0.292893C17.5196 0.105357 17.2652 0 17 0L13.5 0C13.2348 0 12.9804 0.105357 12.7929 0.292893C12.6054 0.48043 12.5 0.734784 12.5 1C12.5 2.25 12.3 3.45 11.93 4.57C11.82 4.92 11.9 5.31 12.18 5.59L14.38 7.79Z" fill="#EFF2FC"/>
</svg>
