<svg width="24" height="17" viewBox="0 0 24 17" fill="none" xmlns="http://www.w3.org/2000/svg">
<path d="M6.00003 9.12498C6.00129 9.22382 5.98275 9.32191 5.9455 9.41347C5.90826 9.50504 5.85306 9.58822 5.78316 9.65811C5.71327 9.72801 5.63009 9.78321 5.53853 9.82045C5.44696 9.8577 5.34887 9.87624 5.25003 9.87498H1.12503C0.985698 9.87385 0.849293 9.83487 0.7304 9.76221C0.611506 9.68956 0.514596 9.58595 0.45003 9.46248C0.38999 9.33674 0.365253 9.19705 0.378463 9.05834C0.391674 8.91963 0.442335 8.78712 0.52503 8.67498C1.18877 7.78401 2.07445 7.08257 3.09378 6.6406C2.65577 6.23966 2.31924 5.74043 2.11189 5.184C1.90453 4.62757 1.83228 4.02986 1.90108 3.44005C1.96987 2.85024 2.17775 2.2852 2.5076 1.79144C2.83745 1.29767 3.27985 0.889296 3.79838 0.599923C4.3169 0.310549 4.89674 0.14845 5.49015 0.126967C6.08357 0.105484 6.67361 0.225231 7.2117 0.476353C7.7498 0.727474 8.22056 1.10279 8.58525 1.57141C8.94995 2.04003 9.19814 2.58856 9.3094 3.17185C9.33714 3.32377 9.3179 3.48053 9.25425 3.62123C9.1906 3.76193 9.08557 3.87988 8.95315 3.95935C7.74062 4.67837 6.81842 5.7996 6.3469 7.1281C6.11447 7.76807 5.99703 8.44411 6.00003 9.12498ZM23.475 8.67498C22.8113 7.78401 21.9256 7.08257 20.9063 6.6406C21.3443 6.23966 21.6808 5.74043 21.8882 5.184C22.0955 4.62757 22.1678 4.02986 22.099 3.44005C22.0302 2.85024 21.8223 2.2852 21.4925 1.79144C21.1626 1.29767 20.7202 0.889296 20.2017 0.599923C19.6832 0.310549 19.1033 0.14845 18.5099 0.126967C17.9165 0.105484 17.3264 0.225231 16.7884 0.476353C16.2503 0.727474 15.7795 1.10279 15.4148 1.57141C15.0501 2.04003 14.8019 2.58856 14.6907 3.17185C14.6629 3.32377 14.6822 3.48053 14.7458 3.62123C14.8095 3.76193 14.9145 3.87988 15.0469 3.95935C16.261 4.67653 17.1838 5.79841 17.6532 7.1281C17.8856 7.76807 18.003 8.44411 18 9.12498C17.9988 9.22382 18.0173 9.32191 18.0546 9.41347C18.0918 9.50504 18.147 9.58822 18.2169 9.65811C18.2868 9.72801 18.37 9.78321 18.4615 9.82045C18.5531 9.8577 18.6512 9.87624 18.75 9.87498H22.875C23.0143 9.87498 23.1508 9.83619 23.2693 9.76296C23.3878 9.68974 23.4836 9.58497 23.5458 9.46039C23.6081 9.33581 23.6345 9.19634 23.622 9.05762C23.6095 8.9189 23.5586 8.7864 23.475 8.67498ZM14.7375 12.6969C15.4839 12.1247 16.0324 11.3332 16.3057 10.4333C16.5791 9.53346 16.5637 8.57058 16.2616 7.67996C15.9595 6.78933 15.386 6.01572 14.6217 5.46783C13.8573 4.91993 12.9405 4.62528 12 4.62528C11.0596 4.62528 10.1428 4.91993 9.37839 5.46783C8.61402 6.01572 8.04051 6.78933 7.73845 7.67996C7.4364 8.57058 7.42096 9.53346 7.69433 10.4333C7.96769 11.3332 8.51611 12.1247 9.26253 12.6969C7.80428 13.3443 6.62204 14.4866 5.92503 15.9219C5.86957 16.0359 5.84473 16.1624 5.85295 16.289C5.86117 16.4156 5.90216 16.5378 5.9719 16.6437C6.03682 16.7524 6.12882 16.8423 6.23892 16.9048C6.34903 16.9672 6.47345 17 6.60003 17H17.4C17.5266 17 17.651 16.9672 17.7611 16.9048C17.8712 16.8423 17.9632 16.7524 18.0282 16.6437C18.0979 16.5378 18.1389 16.4156 18.1471 16.289C18.1553 16.1624 18.1305 16.0359 18.075 15.9219C17.378 14.4866 16.1958 13.3443 14.7375 12.6969Z" fill="white"/>
</svg>
