<svg width="12" height="20" viewBox="0 0 12 20" fill="none" xmlns="http://www.w3.org/2000/svg">
<path d="M0.962524 19.1125C0.712524 18.8625 0.587524 18.5665 0.587524 18.2245C0.587524 17.8832 0.712524 17.5875 0.962524 17.3375L8.28752 10.0125L0.937524 2.6625C0.704191 2.42916 0.587524 2.1375 0.587524 1.7875C0.587524 1.4375 0.712524 1.1375 0.962524 0.887497C1.21252 0.637497 1.50852 0.512497 1.85052 0.512497C2.19186 0.512497 2.48752 0.637497 2.73752 0.887497L11.1375 9.3125C11.2375 9.4125 11.3085 9.52083 11.3505 9.6375C11.3919 9.75416 11.4125 9.87916 11.4125 10.0125C11.4125 10.1458 11.3919 10.2708 11.3505 10.3875C11.3085 10.5042 11.2375 10.6125 11.1375 10.7125L2.71252 19.1375C2.47919 19.3708 2.19186 19.4875 1.85052 19.4875C1.50852 19.4875 1.21252 19.3625 0.962524 19.1125Z" fill="#EFF2FC" fill-opacity="0.8"/>
</svg>
