<svg width="16" height="12" viewBox="0 0 16 12" fill="none" xmlns="http://www.w3.org/2000/svg">
<path d="M9.3 11.275C9.1 11.075 9.004 10.8333 9.012 10.55C9.02067 10.2667 9.125 10.025 9.325 9.82499L12.15 6.99999H1C0.716667 6.99999 0.479 6.90399 0.287 6.71199C0.0956668 6.52065 0 6.28332 0 5.99999C0 5.71665 0.0956668 5.47899 0.287 5.28699C0.479 5.09565 0.716667 4.99999 1 4.99999H12.15L9.3 2.14999C9.1 1.94999 9 1.71232 9 1.43699C9 1.16232 9.1 0.924987 9.3 0.724988C9.5 0.524988 9.73767 0.424988 10.013 0.424988C10.2877 0.424988 10.525 0.524988 10.725 0.724988L15.3 5.29999C15.4 5.39999 15.471 5.50832 15.513 5.62499C15.5543 5.74165 15.575 5.86665 15.575 5.99999C15.575 6.13332 15.5543 6.25832 15.513 6.37499C15.471 6.49165 15.4 6.59999 15.3 6.69999L10.7 11.3C10.5167 11.4833 10.2877 11.575 10.013 11.575C9.73767 11.575 9.5 11.475 9.3 11.275Z" fill="#EFF2FC" fill-opacity="0.8"/>
</svg>
