<svg width="17" height="12" viewBox="0 0 17 12" fill="none" xmlns="http://www.w3.org/2000/svg">
<path d="M9.8 11.275C9.6 11.075 9.504 10.8333 9.512 10.55C9.52067 10.2667 9.625 10.025 9.825 9.825L12.65 7H1.5C1.21667 7 0.979 6.904 0.787 6.712C0.595667 6.52067 0.5 6.28334 0.5 6C0.5 5.71667 0.595667 5.479 0.787 5.287C0.979 5.09567 1.21667 5 1.5 5H12.65L9.8 2.15C9.6 1.95 9.5 1.71234 9.5 1.437C9.5 1.16234 9.6 0.925003 9.8 0.725003C10 0.525003 10.2377 0.425003 10.513 0.425003C10.7877 0.425003 11.025 0.525003 11.225 0.725003L15.8 5.3C15.9 5.4 15.971 5.50834 16.013 5.625C16.0543 5.74167 16.075 5.86667 16.075 6C16.075 6.13334 16.0543 6.25834 16.013 6.375C15.971 6.49167 15.9 6.6 15.8 6.7L11.2 11.3C11.0167 11.4833 10.7877 11.575 10.513 11.575C10.2377 11.575 10 11.475 9.8 11.275Z" fill="#4F52B4"/>
</svg>
