<svg width="40" height="33" viewBox="0 0 40 33" fill="none" xmlns="http://www.w3.org/2000/svg">
<path d="M36.7 17L39.5 19.82L26.44 33L19.5 26L22.3 23.18L26.44 27.34L36.7 17ZM14.5 26L20.5 32H0.5V28C0.5 23.58 7.66 20 16.5 20L20.28 20.22L14.5 26ZM16.5 0C18.6217 0 20.6566 0.842854 22.1569 2.34315C23.6571 3.84344 24.5 5.87827 24.5 8C24.5 10.1217 23.6571 12.1566 22.1569 13.6569C20.6566 15.1571 18.6217 16 16.5 16C14.3783 16 12.3434 15.1571 10.8431 13.6569C9.34285 12.1566 8.5 10.1217 8.5 8C8.5 5.87827 9.34285 3.84344 10.8431 2.34315C12.3434 0.842854 14.3783 0 16.5 0Z" fill="#22C55E"/>
</svg>
