<svg width="24" height="24" viewBox="0 0 24 24" fill="none" xmlns="http://www.w3.org/2000/svg">
<g clip-path="url(#clip0_122_20759)">
<path d="M21.0679 2.33703C20.447 1.79203 17.9322 0.0400277 12.3319 0.0170277C12.3319 0.0170277 5.72353 -0.361972 2.5044 2.46903C0.713793 4.18503 0.0866626 6.69803 0.0146626 9.81503C-0.0573374 12.932 -0.137685 18.774 5.73814 20.362H5.74336L5.73814 22.781C5.73814 22.781 5.69953 23.761 6.37153 23.958C7.18336 24.202 7.66336 23.456 8.44075 22.654C8.86649 22.213 9.45292 21.567 9.89849 21.074C12.4519 21.3007 15.0269 21.1124 17.5148 20.517L17.3583 20.549C18.1701 20.296 22.7635 19.733 23.5065 13.892C24.2828 7.86203 23.1371 4.05803 21.0679 2.33703ZM21.7482 13.452C21.1148 18.327 17.3938 18.637 16.7093 18.847C15.215 19.211 13.4995 19.419 11.7329 19.419C11.2258 19.419 10.7228 19.402 10.2251 19.368L10.2919 19.372C10.2919 19.372 7.74788 22.311 6.95588 23.075C6.6971 23.323 6.41223 23.303 6.41745 22.808C6.41745 22.485 6.43727 18.79 6.43727 18.79C1.46301 17.468 1.75101 12.492 1.80945 9.89303C1.86788 7.29403 2.3771 5.15803 3.89327 3.72403C6.61884 1.35703 12.2296 1.70803 12.2296 1.70803C16.9701 1.72703 19.2397 3.09603 19.7677 3.55503C21.5145 4.99003 22.4046 8.42303 21.7482 13.452ZM14.9541 9.66403V9.67803C14.9519 9.7559 14.9186 9.82999 14.8611 9.88501C14.8035 9.94003 14.7261 9.97178 14.6449 9.97371C14.5636 9.97563 14.4847 9.94759 14.4244 9.89536C14.364 9.84313 14.327 9.7707 14.3207 9.69303C14.342 9.48424 14.3157 9.27252 14.2437 9.07442C14.1717 8.87631 14.0557 8.69554 13.9038 8.54456C13.7518 8.39359 13.5674 8.27602 13.3634 8.19996C13.1594 8.12391 12.9406 8.09117 12.7221 8.10403H12.7263C12.6452 8.09801 12.5696 8.06237 12.5152 8.00447C12.4607 7.94657 12.4316 7.87084 12.4337 7.79293C12.4358 7.71501 12.4691 7.64085 12.5267 7.58579C12.5843 7.53072 12.6617 7.49895 12.743 7.49703H12.7607H12.7597L12.8317 7.49603C13.123 7.49593 13.4113 7.55323 13.6785 7.66436C13.9458 7.7755 14.1863 7.93809 14.3853 8.14205C14.5842 8.34601 14.7372 8.58698 14.8349 8.85C14.9326 9.11302 14.9728 9.39248 14.9531 9.67103V9.66503L14.9541 9.66403ZM15.9465 10.195C15.9955 8.20703 14.6995 6.65103 12.239 6.47703C12.1963 6.47575 12.1543 6.46622 12.1156 6.44901C12.0768 6.4318 12.0421 6.40727 12.0135 6.37689C11.9848 6.3465 11.9629 6.31089 11.949 6.27219C11.9351 6.23349 11.9295 6.19249 11.9325 6.15166C11.9355 6.11083 11.9471 6.071 11.9666 6.03457C11.9861 5.99814 12.013 5.96585 12.0458 5.93964C12.0787 5.91344 12.1166 5.89385 12.1576 5.88206C12.1985 5.87027 12.2414 5.86652 12.2839 5.87103H12.2828H12.3006C12.8845 5.87101 13.4623 5.98538 13.9984 6.20711C14.5345 6.42885 15.0177 6.75327 15.4183 7.16046C15.8188 7.56764 16.1283 8.049 16.3277 8.57496C16.5271 9.10093 16.6122 9.6604 16.5778 10.219L16.5788 10.208C16.5732 10.2855 16.5369 10.358 16.4773 10.4107C16.4176 10.4633 16.3393 10.4921 16.2582 10.491C16.1771 10.49 16.0996 10.4593 16.0414 10.4052C15.9832 10.3511 15.9489 10.2776 15.9454 10.2V10.192L15.9465 10.195ZM18.2421 10.824V10.826C18.2379 10.9035 18.2029 10.9766 18.1443 11.0301C18.0857 11.0837 18.0079 11.1138 17.9269 11.1142C17.8459 11.1145 17.7678 11.0852 17.7087 11.0322C17.6495 10.9792 17.6138 10.9065 17.6087 10.829C17.5837 7.00703 14.9239 4.92603 11.7006 4.90403C11.6591 4.90403 11.6179 4.89619 11.5796 4.88096C11.5412 4.86574 11.5064 4.84342 11.477 4.81528C11.4476 4.78714 11.4244 4.75374 11.4085 4.71698C11.3926 4.68022 11.3844 4.64082 11.3844 4.60103C11.3844 4.56124 11.3926 4.52184 11.4085 4.48507C11.4244 4.44831 11.4476 4.41491 11.477 4.38677C11.5064 4.35864 11.5412 4.33632 11.5796 4.32109C11.6179 4.30586 11.6591 4.29803 11.7006 4.29803C15.31 4.32203 18.2108 6.70903 18.2401 10.823L18.2421 10.824ZM17.6943 15.422V15.431C17.1663 16.322 16.1781 17.306 15.1607 16.992L15.1514 16.978C13.3375 16.3383 11.6372 15.4347 10.1103 14.299L10.1531 14.329C9.39332 13.7509 8.70409 13.0924 8.09849 12.366L8.07866 12.341C7.53032 11.6795 7.04095 10.9751 6.61571 10.235L6.57397 10.156C6.07085 9.36114 5.65373 8.51911 5.3291 7.64303L5.29779 7.54503C4.97014 6.57003 5.99171 5.62303 6.92666 5.11703H6.93605C7.11999 5.00419 7.34087 4.96027 7.55647 4.99366C7.77206 5.02705 7.96726 5.13541 8.10475 5.29803L8.10579 5.30003C8.10579 5.30003 8.71205 5.99303 8.97188 6.33603C9.21605 6.65503 9.54475 7.16603 9.71484 7.45103C9.8429 7.64577 9.89502 7.87762 9.86198 8.10562C9.82895 8.33362 9.71289 8.54309 9.53431 8.69703L9.53327 8.69803L8.94684 9.14803C8.8554 9.2326 8.78474 9.33561 8.73998 9.44959C8.69523 9.56357 8.67749 9.68567 8.68805 9.80703V9.80403C8.97843 10.7314 9.50251 11.5759 10.2141 12.2632C10.9256 12.9505 11.8027 13.4594 12.7681 13.745L12.8119 13.756C12.9379 13.7655 13.0646 13.7484 13.1829 13.7057C13.3012 13.663 13.4082 13.5958 13.4964 13.509L13.966 12.947C14.1273 12.7751 14.347 12.6636 14.586 12.6323C14.825 12.601 15.0678 12.6519 15.2714 12.776L15.2672 12.774C16.1155 13.237 16.8491 13.746 17.518 14.323L17.5065 14.313C17.6762 14.4427 17.7891 14.6285 17.8231 14.8339C17.8571 15.0393 17.8096 15.2494 17.6901 15.423L17.6922 15.42L17.6943 15.422Z" fill="white"/>
</g>
<defs>
<clipPath id="clip0_122_20759">
<rect width="24" height="24" fill="white"/>
</clipPath>
</defs>
</svg>
